<?xml version="1.0" encoding="utf-8"?>
<!-- Generator: Adobe Illustrator 15.1.0, SVG Export Plug-In . SVG Version: 6.00 Build 0)  -->
<!DOCTYPE svg PUBLIC "-//W3C//DTD SVG 1.1//EN" "http://www.w3.org/Graphics/SVG/1.1/DTD/svg11.dtd">
<svg version="1.1" id="Layer_1" xmlns="http://www.w3.org/2000/svg" xmlns:xlink="http://www.w3.org/1999/xlink" x="0px" y="0px"
	 width="449.08px" height="75.422px" viewBox="0 0 449.08 75.422" enable-background="new 0 0 449.08 75.422" xml:space="preserve">
<g>
	<path fill="#FFFFFF" d="M47.964,37.223l9.803,21.069l14.504-0.078l3.722,8.001l-63.637-0.018l41.377-47.828l3.782,8.129
		L47.964,37.223z M42.393,43.498L29.054,58.584l20.294-0.136L42.393,43.498z"/>
	<path fill="#FFFFFF" d="M94.196,44.021v22.043h-8.191V11.784h9.281c4.547,0,7.98,0.316,10.301,0.949
		c2.343,0.633,4.406,1.828,6.188,3.586c3.117,3.047,4.676,6.891,4.676,11.531c0,4.969-1.665,8.907-4.992,11.812
		c-3.328,2.906-7.817,4.359-13.465,4.359H94.196z M94.196,36.428h3.059c7.523,0,11.285-2.895,11.285-8.684
		c0-5.602-3.879-8.402-11.637-8.402h-2.707V36.428z"/>
	<path fill="#FFFFFF" d="M133.079,44.021v22.043h-8.191V11.784h9.281c4.547,0,7.98,0.316,10.301,0.949
		c2.343,0.633,4.406,1.828,6.188,3.586c3.117,3.047,4.676,6.891,4.676,11.531c0,4.969-1.665,8.907-4.992,11.812
		c-3.328,2.906-7.817,4.359-13.465,4.359H133.079z M133.079,36.428h3.059c7.523,0,11.285-2.895,11.285-8.684
		c0-5.602-3.879-8.402-11.637-8.402h-2.707V36.428z"/>
	<path fill="#FFFFFF" d="M191.685,52.881h-23.238l-6.047,13.184h-8.824l26.859-57.691l25.91,57.691h-8.965L191.685,52.881z
		 M188.345,45.182l-8.051-18.457l-8.438,18.457H188.345z"/>
	<path fill="#FFFFFF" d="M221.321,11.784v46.582h15.961v7.699H213.13V11.784H221.321z"/>
	<path fill="#FFFFFF" d="M253.243,11.784v46.582h15.961v7.699h-24.152V11.784H253.243z"/>
	<path fill="#FFFFFF" d="M285.165,11.784v54.281h-8.191V11.784H285.165z"/>
	<path fill="#FFFFFF" d="M313.185,19.483v46.582h-8.191V19.483h-12.48v-7.699h33.117v7.699H313.185z"/>
	<path fill="#FFFFFF" d="M341.134,11.784v54.281h-8.191V11.784H341.134z"/>
	<path fill="#FFFFFF" d="M394.29,14.702v9.703c-4.734-3.96-9.633-5.941-14.695-5.941c-5.578,0-10.277,2.004-14.098,6.012
		c-3.844,3.985-5.766,8.859-5.766,14.625c0,5.695,1.922,10.5,5.766,14.414c3.844,3.915,8.555,5.871,14.133,5.871
		c2.883,0,5.332-0.469,7.348-1.406c1.125-0.469,2.291-1.102,3.498-1.898c1.207-0.796,2.479-1.758,3.814-2.883v9.879
		c-4.688,2.649-9.609,3.973-14.766,3.973c-7.758,0-14.379-2.707-19.863-8.121c-5.461-5.461-8.191-12.046-8.191-19.758
		c0-6.913,2.285-13.078,6.855-18.492c5.625-6.632,12.902-9.949,21.832-9.949C385.032,10.729,389.743,12.053,394.29,14.702z"/>
	<path fill="#FFFFFF" d="M435.317,19.87l-6.645,3.938c-1.242-2.156-2.426-3.562-3.551-4.219c-1.172-0.75-2.684-1.125-4.535-1.125
		c-2.273,0-4.16,0.645-5.66,1.934c-1.5,1.266-2.25,2.86-2.25,4.781c0,2.649,1.969,4.781,5.906,6.398l5.414,2.215
		c4.406,1.781,7.629,3.956,9.668,6.521c2.039,2.566,3.059,5.713,3.059,9.439c0,4.992-1.664,9.118-4.992,12.375
		c-3.352,3.282-7.512,4.922-12.48,4.922c-4.711,0-8.602-1.394-11.672-4.184c-3.023-2.789-4.91-6.715-5.66-11.777l8.297-1.828
		c0.375,3.188,1.031,5.392,1.969,6.609c1.688,2.344,4.148,3.516,7.383,3.516c2.555,0,4.676-0.855,6.363-2.566
		c1.688-1.71,2.531-3.879,2.531-6.504c0-1.055-0.146-2.021-0.439-2.9s-0.75-1.688-1.371-2.426s-1.424-1.429-2.408-2.074
		c-0.984-0.645-2.156-1.26-3.516-1.846l-5.238-2.18c-7.43-3.14-11.145-7.734-11.145-13.781c0-4.078,1.559-7.488,4.676-10.23
		c3.117-2.765,6.996-4.148,11.637-4.148C426.915,10.729,431.802,13.776,435.317,19.87z"/>
</g>
</svg>
