<?xml version="1.0" encoding="utf-8"?>
<!-- Generator: Adobe Illustrator 15.1.0, SVG Export Plug-In . SVG Version: 6.00 Build 0)  -->
<!DOCTYPE svg PUBLIC "-//W3C//DTD SVG 1.1//EN" "http://www.w3.org/Graphics/SVG/1.1/DTD/svg11.dtd">
<svg version="1.1" id="Layer_1" xmlns="http://www.w3.org/2000/svg" xmlns:xlink="http://www.w3.org/1999/xlink" x="0px" y="0px"
	 width="800px" height="779.961px" viewBox="0 0 800 779.961" enable-background="new 0 0 800 779.961" xml:space="preserve">
<g opacity="0.3">
	<circle cx="111.25" cy="53.391" r="15"/>
	<path d="M142.75,70.391h-12h-39h-12c-4.971,0-8.75,4.029-8.75,9v58c0,4.971,4.029,9,9,9s9-4.029,9-9v-49h3v63v73
		c0,4.971,4.029,9,9,9s9-4.029,9-9v-73h3v73c0,4.971,4.029,9,9,9s9-4.029,9-9v-73v-63h3v49c0,4.971,4.029,9,9,9s9-4.029,9-9v-58
		C152,74.42,147.721,70.391,142.75,70.391z"/>
</g>
<g opacity="0.3">
	<circle cx="192.25" cy="141.391" r="15"/>
	<path d="M241.783,222.688l-12.667-56.499c-0.025-0.115-0.063-0.225-0.093-0.339c-0.732-4.234-4.415-7.459-8.859-7.459H219h-12.836
		H206h-26.836H179h-12.836H165c-4.444,0-8.127,3.225-8.859,7.459c-0.029,0.114-0.067,0.224-0.093,0.339l-12.667,56.499
		c-1.078,4.854,1.981,9.66,6.834,10.738c4.852,1.078,9.659-1.98,10.737-6.833l11.268-50.202H175l-20,90h0.164H173v46
		c0,4.971,4.029,9,9,9s9-4.029,9-9v-46h3v46c0,4.971,4.029,9,9,9s9-4.029,9-9v-46h18h0.164l-20-90h2.78l11.268,50.202
		c1.078,4.853,5.886,7.911,10.737,6.833C239.802,232.348,242.861,227.541,241.783,222.688z"/>
</g>
<g opacity="0.3">
	<circle cx="273.25" cy="53.391" r="15"/>
	<path d="M304.75,70.391h-12h-39h-12c-4.971,0-8.75,4.029-8.75,9v58c0,4.971,4.029,9,9,9s9-4.029,9-9v-49h3v63v73
		c0,4.971,4.029,9,9,9s9-4.029,9-9v-73h3v73c0,4.971,4.029,9,9,9s9-4.029,9-9v-73v-63h3v49c0,4.971,4.029,9,9,9s9-4.029,9-9v-58
		C314,74.42,309.721,70.391,304.75,70.391z"/>
</g>
<g opacity="0.3">
	<circle cx="354.25" cy="141.391" r="15"/>
	<path d="M403.783,222.688l-12.667-56.499c-0.025-0.115-0.063-0.225-0.093-0.339c-0.732-4.234-4.415-7.459-8.859-7.459H381h-12.836
		H368h-26.836H341h-12.836H327c-4.444,0-8.127,3.225-8.859,7.459c-0.029,0.114-0.067,0.224-0.093,0.339l-12.667,56.499
		c-1.078,4.854,1.981,9.66,6.834,10.738c4.852,1.078,9.659-1.98,10.737-6.833l11.268-50.202H337l-20,90h0.164H335v46
		c0,4.971,4.029,9,9,9s9-4.029,9-9v-46h3v46c0,4.971,4.029,9,9,9s9-4.029,9-9v-46h18h0.164l-20-90h2.78l11.268,50.202
		c1.078,4.853,5.886,7.911,10.737,6.833C401.802,232.348,404.861,227.541,403.783,222.688z"/>
</g>
<g opacity="0.3">
	<circle cx="435.25" cy="53.391" r="15"/>
	<path d="M466.75,70.391h-12h-39h-12c-4.971,0-8.75,4.029-8.75,9v58c0,4.971,4.029,9,9,9s9-4.029,9-9v-49h3v63v73
		c0,4.971,4.029,9,9,9s9-4.029,9-9v-73h3v73c0,4.971,4.029,9,9,9s9-4.029,9-9v-73v-63h3v49c0,4.971,4.029,9,9,9s9-4.029,9-9v-58
		C476,74.42,471.721,70.391,466.75,70.391z"/>
</g>
<g opacity="0.3">
	<circle cx="516.25" cy="141.391" r="15"/>
	<path d="M565.783,222.688l-12.667-56.499c-0.025-0.115-0.063-0.225-0.093-0.339c-0.732-4.234-4.415-7.459-8.859-7.459H543h-12.836
		H530h-26.836H503h-12.836H489c-4.444,0-8.127,3.225-8.859,7.459c-0.029,0.114-0.067,0.224-0.093,0.339l-12.667,56.499
		c-1.078,4.854,1.981,9.66,6.834,10.738c4.852,1.078,9.659-1.98,10.737-6.833l11.268-50.202H499l-20,90h0.164H497v46
		c0,4.971,4.029,9,9,9s9-4.029,9-9v-46h3v46c0,4.971,4.029,9,9,9s9-4.029,9-9v-46h18h0.164l-20-90h2.78l11.268,50.202
		c1.078,4.853,5.886,7.911,10.737,6.833C563.802,232.348,566.861,227.541,565.783,222.688z"/>
</g>
<g opacity="0.3">
	<circle cx="597.25" cy="53.391" r="15"/>
	<path d="M628.75,70.391h-12h-39h-12c-4.971,0-8.75,4.029-8.75,9v58c0,4.971,4.029,9,9,9s9-4.029,9-9v-49h3v63v73
		c0,4.971,4.029,9,9,9s9-4.029,9-9v-73h3v73c0,4.971,4.029,9,9,9s9-4.029,9-9v-73v-63h3v49c0,4.971,4.029,9,9,9s9-4.029,9-9v-58
		C638,74.42,633.721,70.391,628.75,70.391z"/>
</g>
<g opacity="0.3">
	<circle cx="678.25" cy="141.391" r="15"/>
	<path d="M727.783,222.688l-12.667-56.499c-0.025-0.115-0.063-0.225-0.093-0.339c-0.732-4.234-4.415-7.459-8.859-7.459H705h-12.836
		H692h-26.836H665h-12.836H651c-4.444,0-8.127,3.225-8.859,7.459c-0.029,0.114-0.067,0.224-0.093,0.339l-12.667,56.499
		c-1.078,4.854,1.981,9.66,6.834,10.738c4.852,1.078,9.659-1.98,10.737-6.833l11.268-50.202H661l-20,90h0.164H659v46
		c0,4.971,4.029,9,9,9s9-4.029,9-9v-46h3v46c0,4.971,4.029,9,9,9s9-4.029,9-9v-46h18h0.164l-20-90h2.78l11.268,50.202
		c1.078,4.853,5.886,7.911,10.737,6.833C725.802,232.348,728.861,227.541,727.783,222.688z"/>
</g>
<g opacity="0.3">
	<circle cx="111.25" cy="263.391" r="15"/>
	<path d="M142.75,280.391h-12h-39h-12c-4.971,0-8.75,4.029-8.75,9v58c0,4.971,4.029,9,9,9s9-4.029,9-9v-49h3v63v73
		c0,4.971,4.029,9,9,9s9-4.029,9-9v-73h3v73c0,4.971,4.029,9,9,9s9-4.029,9-9v-73v-63h3v49c0,4.971,4.029,9,9,9s9-4.029,9-9v-58
		C152,284.42,147.721,280.391,142.75,280.391z"/>
</g>
<g opacity="0.3">
	<circle cx="192.25" cy="351.391" r="15"/>
	<path d="M241.783,432.688l-12.667-56.499c-0.025-0.115-0.063-0.225-0.093-0.339c-0.732-4.234-4.415-7.459-8.859-7.459H219h-12.836
		H206h-26.836H179h-12.836H165c-4.444,0-8.127,3.225-8.859,7.459c-0.029,0.114-0.067,0.224-0.093,0.339l-12.667,56.499
		c-1.078,4.854,1.981,9.66,6.834,10.738c4.852,1.078,9.659-1.98,10.737-6.833l11.268-50.202H175l-20,90h0.164H173v46
		c0,4.971,4.029,9,9,9s9-4.029,9-9v-46h3v46c0,4.971,4.029,9,9,9s9-4.029,9-9v-46h18h0.164l-20-90h2.78l11.268,50.202
		c1.078,4.853,5.886,7.911,10.737,6.833C239.802,442.348,242.861,437.541,241.783,432.688z"/>
</g>
<g opacity="0.3">
	<circle cx="273.25" cy="263.391" r="15"/>
	<path d="M304.75,280.391h-12h-39h-12c-4.971,0-8.75,4.029-8.75,9v58c0,4.971,4.029,9,9,9s9-4.029,9-9v-49h3v63v73
		c0,4.971,4.029,9,9,9s9-4.029,9-9v-73h3v73c0,4.971,4.029,9,9,9s9-4.029,9-9v-73v-63h3v49c0,4.971,4.029,9,9,9s9-4.029,9-9v-58
		C314,284.42,309.721,280.391,304.75,280.391z"/>
</g>
<g opacity="0.3">
	<circle cx="354.25" cy="351.391" r="15"/>
	<path d="M403.783,432.688l-12.667-56.499c-0.025-0.115-0.063-0.225-0.093-0.339c-0.732-4.234-4.415-7.459-8.859-7.459H381h-12.836
		H368h-26.836H341h-12.836H327c-4.444,0-8.127,3.225-8.859,7.459c-0.029,0.114-0.067,0.224-0.093,0.339l-12.667,56.499
		c-1.078,4.854,1.981,9.66,6.834,10.738c4.852,1.078,9.659-1.98,10.737-6.833l11.268-50.202H337l-20,90h0.164H335v46
		c0,4.971,4.029,9,9,9s9-4.029,9-9v-46h3v46c0,4.971,4.029,9,9,9s9-4.029,9-9v-46h18h0.164l-20-90h2.78l11.268,50.202
		c1.078,4.853,5.886,7.911,10.737,6.833C401.802,442.348,404.861,437.541,403.783,432.688z"/>
</g>
<g opacity="0.3">
	<circle cx="435.25" cy="263.391" r="15"/>
	<path d="M466.75,280.391h-12h-39h-12c-4.971,0-8.75,4.029-8.75,9v58c0,4.971,4.029,9,9,9s9-4.029,9-9v-49h3v63v73
		c0,4.971,4.029,9,9,9s9-4.029,9-9v-73h3v73c0,4.971,4.029,9,9,9s9-4.029,9-9v-73v-63h3v49c0,4.971,4.029,9,9,9s9-4.029,9-9v-58
		C476,284.42,471.721,280.391,466.75,280.391z"/>
</g>
<g opacity="0.3">
	<circle cx="516.25" cy="351.391" r="15"/>
	<path d="M565.783,432.688l-12.667-56.499c-0.025-0.115-0.063-0.225-0.093-0.339c-0.732-4.234-4.415-7.459-8.859-7.459H543h-12.836
		H530h-26.836H503h-12.836H489c-4.444,0-8.127,3.225-8.859,7.459c-0.029,0.114-0.067,0.224-0.093,0.339l-12.667,56.499
		c-1.078,4.854,1.981,9.66,6.834,10.738c4.852,1.078,9.659-1.98,10.737-6.833l11.268-50.202H499l-20,90h0.164H497v46
		c0,4.971,4.029,9,9,9s9-4.029,9-9v-46h3v46c0,4.971,4.029,9,9,9s9-4.029,9-9v-46h18h0.164l-20-90h2.78l11.268,50.202
		c1.078,4.853,5.886,7.911,10.737,6.833C563.802,442.348,566.861,437.541,565.783,432.688z"/>
</g>
<g opacity="0.3">
	<circle cx="597.25" cy="263.391" r="15"/>
	<path d="M628.75,280.391h-12h-39h-12c-4.971,0-8.75,4.029-8.75,9v58c0,4.971,4.029,9,9,9s9-4.029,9-9v-49h3v63v73
		c0,4.971,4.029,9,9,9s9-4.029,9-9v-73h3v73c0,4.971,4.029,9,9,9s9-4.029,9-9v-73v-63h3v49c0,4.971,4.029,9,9,9s9-4.029,9-9v-58
		C638,284.42,633.721,280.391,628.75,280.391z"/>
</g>
<g opacity="0.3">
	<circle cx="678.25" cy="351.391" r="15"/>
	<path d="M727.783,432.688l-12.667-56.499c-0.025-0.115-0.063-0.225-0.093-0.339c-0.732-4.234-4.415-7.459-8.859-7.459H705h-12.836
		H692h-26.836H665h-12.836H651c-4.444,0-8.127,3.225-8.859,7.459c-0.029,0.114-0.067,0.224-0.093,0.339l-12.667,56.499
		c-1.078,4.854,1.981,9.66,6.834,10.738c4.852,1.078,9.659-1.98,10.737-6.833l11.268-50.202H661l-20,90h0.164H659v46
		c0,4.971,4.029,9,9,9s9-4.029,9-9v-46h3v46c0,4.971,4.029,9,9,9s9-4.029,9-9v-46h18h0.164l-20-90h2.78l11.268,50.202
		c1.078,4.853,5.886,7.911,10.737,6.833C725.802,442.348,728.861,437.541,727.783,432.688z"/>
</g>
<g opacity="0.3">
	<circle cx="111.25" cy="473.391" r="15"/>
	<path d="M142.75,490.391h-12h-39h-12c-4.971,0-8.75,4.029-8.75,9v58c0,4.971,4.029,9,9,9s9-4.029,9-9v-49h3v63v73
		c0,4.971,4.029,9,9,9s9-4.029,9-9v-73h3v73c0,4.971,4.029,9,9,9s9-4.029,9-9v-73v-63h3v49c0,4.971,4.029,9,9,9s9-4.029,9-9v-58
		C152,494.42,147.721,490.391,142.75,490.391z"/>
</g>
<g opacity="0.3">
	<circle cx="192.25" cy="561.391" r="15"/>
	<path d="M241.783,642.688l-12.667-56.499c-0.025-0.115-0.063-0.225-0.093-0.339c-0.732-4.234-4.415-7.459-8.859-7.459H219h-12.836
		H206h-26.836H179h-12.836H165c-4.444,0-8.127,3.225-8.859,7.459c-0.029,0.114-0.067,0.224-0.093,0.339l-12.667,56.499
		c-1.078,4.854,1.981,9.66,6.834,10.738c4.852,1.078,9.659-1.98,10.737-6.833l11.268-50.202H175l-20,90h0.164H173v46
		c0,4.971,4.029,9,9,9s9-4.029,9-9v-46h3v46c0,4.971,4.029,9,9,9s9-4.029,9-9v-46h18h0.164l-20-90h2.78l11.268,50.202
		c1.078,4.853,5.886,7.911,10.737,6.833C239.802,652.348,242.861,647.541,241.783,642.688z"/>
</g>
<g opacity="0.3">
	<circle cx="273.25" cy="473.391" r="15"/>
	<path d="M304.75,490.391h-12h-39h-12c-4.971,0-8.75,4.029-8.75,9v58c0,4.971,4.029,9,9,9s9-4.029,9-9v-49h3v63v73
		c0,4.971,4.029,9,9,9s9-4.029,9-9v-73h3v73c0,4.971,4.029,9,9,9s9-4.029,9-9v-73v-63h3v49c0,4.971,4.029,9,9,9s9-4.029,9-9v-58
		C314,494.42,309.721,490.391,304.75,490.391z"/>
</g>
<g opacity="0.3">
	<circle cx="354.25" cy="561.391" r="15"/>
	<path d="M403.783,642.688l-12.667-56.499c-0.025-0.115-0.063-0.225-0.093-0.339c-0.732-4.234-4.415-7.459-8.859-7.459H381h-12.836
		H368h-26.836H341h-12.836H327c-4.444,0-8.127,3.225-8.859,7.459c-0.029,0.114-0.067,0.224-0.093,0.339l-12.667,56.499
		c-1.078,4.854,1.981,9.66,6.834,10.738c4.852,1.078,9.659-1.98,10.737-6.833l11.268-50.202H337l-20,90h0.164H335v46
		c0,4.971,4.029,9,9,9s9-4.029,9-9v-46h3v46c0,4.971,4.029,9,9,9s9-4.029,9-9v-46h18h0.164l-20-90h2.78l11.268,50.202
		c1.078,4.853,5.886,7.911,10.737,6.833C401.802,652.348,404.861,647.541,403.783,642.688z"/>
</g>
<g opacity="0.3">
	<circle cx="435.25" cy="473.391" r="15"/>
	<path d="M466.75,490.391h-12h-39h-12c-4.971,0-8.75,4.029-8.75,9v58c0,4.971,4.029,9,9,9s9-4.029,9-9v-49h3v63v73
		c0,4.971,4.029,9,9,9s9-4.029,9-9v-73h3v73c0,4.971,4.029,9,9,9s9-4.029,9-9v-73v-63h3v49c0,4.971,4.029,9,9,9s9-4.029,9-9v-58
		C476,494.42,471.721,490.391,466.75,490.391z"/>
</g>
<g opacity="0.3">
	<circle cx="516.25" cy="561.391" r="15"/>
	<path d="M565.783,642.688l-12.667-56.499c-0.025-0.115-0.063-0.225-0.093-0.339c-0.732-4.234-4.415-7.459-8.859-7.459H543h-12.836
		H530h-26.836H503h-12.836H489c-4.444,0-8.127,3.225-8.859,7.459c-0.029,0.114-0.067,0.224-0.093,0.339l-12.667,56.499
		c-1.078,4.854,1.981,9.66,6.834,10.738c4.852,1.078,9.659-1.98,10.737-6.833l11.268-50.202H499l-20,90h0.164H497v46
		c0,4.971,4.029,9,9,9s9-4.029,9-9v-46h3v46c0,4.971,4.029,9,9,9s9-4.029,9-9v-46h18h0.164l-20-90h2.78l11.268,50.202
		c1.078,4.853,5.886,7.911,10.737,6.833C563.802,652.348,566.861,647.541,565.783,642.688z"/>
</g>
<g opacity="0.3">
	<circle cx="597.25" cy="473.391" r="15"/>
	<path d="M628.75,490.391h-12h-39h-12c-4.971,0-8.75,4.029-8.75,9v58c0,4.971,4.029,9,9,9s9-4.029,9-9v-49h3v63v73
		c0,4.971,4.029,9,9,9s9-4.029,9-9v-73h3v73c0,4.971,4.029,9,9,9s9-4.029,9-9v-73v-63h3v49c0,4.971,4.029,9,9,9s9-4.029,9-9v-58
		C638,494.42,633.721,490.391,628.75,490.391z"/>
</g>
<g opacity="0.3">
	<circle cx="678.25" cy="561.391" r="15"/>
	<path d="M727.783,642.688l-12.667-56.499c-0.025-0.115-0.063-0.225-0.093-0.339c-0.732-4.234-4.415-7.459-8.859-7.459H705h-12.836
		H692h-26.836H665h-12.836H651c-4.444,0-8.127,3.225-8.859,7.459c-0.029,0.114-0.067,0.224-0.093,0.339l-12.667,56.499
		c-1.078,4.854,1.981,9.66,6.834,10.738c4.852,1.078,9.659-1.98,10.737-6.833l11.268-50.202H661l-20,90h0.164H659v46
		c0,4.971,4.029,9,9,9s9-4.029,9-9v-46h3v46c0,4.971,4.029,9,9,9s9-4.029,9-9v-46h18h0.164l-20-90h2.78l11.268,50.202
		c1.078,4.853,5.886,7.911,10.737,6.833C725.802,652.348,728.861,647.541,727.783,642.688z"/>
</g>
</svg>
