<?xml version="1.0" encoding="utf-8"?>
<!-- Generator: Adobe Illustrator 15.1.0, SVG Export Plug-In . SVG Version: 6.00 Build 0)  -->
<!DOCTYPE svg PUBLIC "-//W3C//DTD SVG 1.1//EN" "http://www.w3.org/Graphics/SVG/1.1/DTD/svg11.dtd">
<svg version="1.1" id="Layer_1" xmlns="http://www.w3.org/2000/svg" xmlns:xlink="http://www.w3.org/1999/xlink" x="0px" y="0px"
	 width="800px" height="600px" viewBox="0 0 800 600" enable-background="new 0 0 800 600" xml:space="preserve">
<path d="M355.667,288.681c0,0,30.433-8.913,26.366-14.674c-2.67-3.782-1.416-9.988-1.416-9.988s3.482,1.905,5.715,2.73
	s4.969,1.217,4.969,1.217c-1.625-2.723-0.924-5.632-0.924-5.632s5.16,3.438,9.376,4.849c4.216,1.412,16.592,2.716,21.692,4.282
	c5.1,1.565,6.195,6.895,6.195,6.895s12.494,2.757,18.442,9.54l-2.063,4.957c0,0,1.213,0.521,0,5.217
	c-1.213,4.696-7.281,8.088-7.281,8.088s1.669-6.13-1.455-7.305c-3.125-1.175-11.164-4.042-15.293-3.13
	c-4.127,0.912-5.381,3.937-6.067,6.783c-0.852,4.824-0.483,7.436,2.185,12c2.668,4.562,7.375,6.523,9.68,6.521
	c2.305-0.001,7.311-4.957,7.311-4.957s0.5,5.038-1.456,8.349c-4.829,8.171-9.833,4.825-12.622,3.913
	c-4.564-1.494-11.701-7.583-16.506-7.044c-5.769,0.647-15.412,10.435-17.233,16.696c0,0-8.011-6.262-7.525-19.826
	c0,0-6.189-0.783-9.952,8.608c0,0-4.125-16.174-0.243-26.739c0,0-5.34,6.652-10.074,7.435c0,0,5.948-6.912,7.889-14.608
	C365.376,292.855,360.643,293.508,355.667,288.681z"/>
</svg>
