<?xml version="1.0" encoding="utf-8"?>
<!-- Generator: Adobe Illustrator 15.1.0, SVG Export Plug-In . SVG Version: 6.00 Build 0)  -->
<!DOCTYPE svg PUBLIC "-//W3C//DTD SVG 1.1//EN" "http://www.w3.org/Graphics/SVG/1.1/DTD/svg11.dtd">
<svg version="1.1" id="Layer_1" xmlns="http://www.w3.org/2000/svg" xmlns:xlink="http://www.w3.org/1999/xlink" x="0px" y="0px"
	 width="800px" height="600px" viewBox="0 0 800 600" enable-background="new 0 0 800 600" xml:space="preserve">
<g>
	<path d="M335.419,456.404c-1.345-1.051-31.909-25.565-32.107-77.962c-7.173,1.286-20.479,7.047-30.081,31.011l-5.684,14.187
		l-3.8-14.803c-0.485-1.89-10.88-43.402-0.041-83.75c-9.299,3.441-23.553,8.236-35.566,10.221l-13.59,2.246l8.984-10.44
		c0.213-0.248,20.025-23.517,28.731-50.285c-7.951-0.837-21.708-4.419-35.704-17.995l-6.16-5.975l8.236-2.413
		c0.245-0.072,24.783-7.289,49.919-17.139c44.286-17.354,51.977-27.57,53.228-31.157c0.375-1.076,0.277-1.812-0.362-2.718
		c-11.787-16.698-6.7-42.727-6.478-43.827l1.345-6.653l5.956,3.257c0.136,0.075,13.714,7.483,22.196,10.619
		c3.27,1.209,6.869,2.178,10.039,2.909c-2.313-9.052-0.557-16.632-0.456-17.051l1.675-6.958l5.958,3.967
		c0.201,0.134,20.297,13.452,36.319,18.814c8.027,2.688,24.856,5.448,41.131,8.117c17.189,2.818,34.964,5.732,45.517,8.972
		c18.19,5.582,25.136,21.367,27.34,28.183c11.362,2.875,52.028,14.55,73.503,39.036l2.055,2.342l-8.32,19.986
		c1.808,3.774,2.267,10.631-0.906,22.914c-5.325,20.619-30.459,34.869-31.526,35.465l-10.391,5.808l3.127-11.485
		c1.772-6.569,3.433-20.899-2.757-23.228c-22.457-8.442-40.454-12.905-52.045-12.905c-2.41,0-4.525,0.197-6.289,0.586
		c-12.953,2.863-17.559,11.371-20.45,23.273c-3.27,18.626-1.58,27.793,8.158,44.454c10.329,17.664,27.94,23.609,34.389,23.609
		c4.297-0.002,16.773-9.506,25.738-18.381l7.457-7.383l1.036,10.441c0.088,0.89,2.063,21.947-6.495,36.432
		c-9.513,16.097-20.455,23.921-33.452,23.921c-7.318,0.001-13.681-2.508-18.793-4.522c-1.494-0.589-2.904-1.146-4.102-1.537
		c-7.263-2.377-15.625-7.222-24.479-12.351c-12.713-7.364-27.123-15.712-37.511-15.712c-0.663,0-1.31,0.035-1.922,0.104
		c-20.132,2.26-57.615,38.888-64.688,63.213l-2.062,7.091L335.419,456.404z"/>
	<path fill="#FFFFFF" d="M358.885,149.855c0,0,20.639,13.75,37.504,19.395c16.865,5.648,66.369,10.865,86.768,17.127
		c20.398,6.26,24.781,27.578,24.781,27.578s49.977,11.029,73.77,38.158l-8.254,19.828c0,0,4.852,2.084,0,20.867
		c-4.852,18.785-29.125,32.352-29.125,32.352s6.676-24.52-5.82-29.221c-10.831-4.072-36.422-13.224-53.806-13.225
		c-2.68,0-5.161,0.217-7.366,0.704c-16.508,3.648-21.523,15.746-24.27,27.133c-3.406,19.297-1.934,29.924,8.738,48.182
		C472.471,376.973,491.285,385,500.51,385c0.005,0,0.009,0,0.014,0c9.219,0,29.242-20.01,29.242-20.01s2,20.062-5.824,33.304
		c-9.967,16.864-20.121,21.419-29.147,21.419c-8.467,0-15.941-4.069-21.341-5.835c-17.488-5.725-44.415-28.321-63.544-28.321
		c-0.842,0-1.669,0.038-2.479,0.129c-23.076,2.59-61.648,41.735-68.932,66.782c0,0-32.045-25.049-30.102-79.307
		c0,0-0.506-0.064-1.417-0.064c-5.462,0-25.49,2.301-38.39,34.497c0,0-12.502-48.695,3.029-90.957c0,0-25.361,10.609-44.295,13.738
		c0,0,23.793-27.648,31.557-58.434c0,0-0.857,0.118-2.399,0.118c-5.703,0-20.77-1.617-36.439-16.815
		c0,0,121.73-35.65,105.465-58.695c-10.68-15.129-5.662-39.953-5.662-39.953s13.928,7.619,22.861,10.922s19.875,4.867,19.875,4.867
		C356.084,161.492,358.885,149.855,358.885,149.855 M352.513,133.594l-3.351,13.921c-0.204,0.847-1.18,5.297-0.807,11.376
		c-0.739-0.239-1.469-0.491-2.181-0.754c-6.764-2.501-17.835-8.294-21.53-10.315l-11.911-6.516l-2.69,13.308
		c-0.59,2.917-5.321,28.587,6.595,46.676c-1.747,2.642-10.255,11.8-49.671,27.269c-24.996,9.81-49.492,17.016-49.736,17.088
		l-16.469,4.826l12.318,11.949c11.889,11.532,23.733,16.371,32.475,18.344c-9.062,23.382-25.625,42.867-25.817,43.092
		l-17.883,20.855l27.099-4.473c9.04-1.494,19.27-4.515,27.832-7.404c-7.578,38.568,1.654,75.438,2.118,77.243l7.601,29.606
		l11.368-28.374c6.442-16.08,14.539-23.02,20.637-26c2.721,50.125,32.466,73.966,33.83,75.031l11.637,9.096l4.124-14.183
		c2.947-10.134,13.137-24.847,25.96-37.483c12.722-12.536,26.258-21.232,34.484-22.156c0.428-0.048,0.887-0.072,1.364-0.072
		c9.044,0,22.836,7.989,35.005,15.039c9.087,5.264,17.67,10.235,25.428,12.775c1.059,0.346,2.402,0.876,3.825,1.437
		c5.216,2.056,12.359,4.871,20.627,4.871c14.709,0,27.412-8.874,37.757-26.376c9.223-15.61,7.404-37.074,7.166-39.47l-2.072-20.885
		l-14.914,14.766c-8.26,8.164-18.859,16.153-22.438,16.932c-6.147-0.155-21.336-6.561-29.855-21.131
		c-9.081-15.535-10.594-23.622-7.577-40.905c3.011-12.278,7.387-17.372,16.634-19.416c1.407-0.311,3.16-0.468,5.207-0.468
		c10.838,0,28.688,4.467,50.264,12.577c1.479,1.646,1.644,10.021-0.292,17.265l-6.102,22.847l20.636-11.513
		c2.866-1.603,28.174-16.297,33.929-38.581c2.435-9.428,3.063-16.64,1.921-22.046c-0.146-0.69-0.318-1.338-0.512-1.946l6.395-15.361
		l2.395-5.752l-4.108-4.685c-20.963-23.902-59.039-36.014-73.46-39.909c-3.3-8.52-11.46-23.204-29.676-28.794
		c-10.876-3.338-28.82-6.281-46.174-9.126c-16.08-2.637-32.707-5.363-40.352-7.923c-15.426-5.163-34.94-18.104-35.135-18.234
		L352.513,133.594L352.513,133.594z"/>
</g>
</svg>
